<?xml version="1.0" encoding="UTF-8" standalone="no"?>
<svg width="470px" height="98px" viewBox="0 0 470 98" version="1.1" xmlns="http://www.w3.org/2000/svg" xmlns:xlink="http://www.w3.org/1999/xlink">
    <!-- Generator: Sketch 46.1 (44463) - http://www.bohemiancoding.com/sketch -->
    <title>Artboard</title>
    <desc>Created with Sketch.</desc>
    <defs></defs>
    <g id="Page-1" stroke="none" stroke-width="1" fill="none" fill-rule="evenodd">
        <g id="Artboard" fill-rule="nonzero">
            <g id="the-argus">
                <path d="M353.787257,82.4622668 L469.7343,82.4622668 L469.7343,96.4201616 L339.562067,96.4201616 C346.957205,93.826153 352.390989,88.8641699 353.787257,82.4622668 L353.787257,82.4622668 Z M0.207377176,82.4622668 L301.585374,82.4622668 C301.529763,82.8168649 301.501659,83.1846186 301.501659,83.5595479 C301.501659,89.40115 306.073165,93.9660788 313.480262,96.4201616 L0.207377176,96.4201616 L0.207377176,82.4622668 Z" id="Fill-1" fill="#D8232A"></path>
                <path d="M174.185048,52.3942505 C174.185048,34.7307141 164.785504,24.7314029 152.586847,24.7314029 C135.588257,24.7314029 126.389632,39.6191467 126.389632,52.1730003 C126.389632,64.7280499 135.588257,79.6145978 152.586847,79.6145978 C164.186335,79.6145978 169.885619,73.8375767 173.884268,65.6154425 L170.685708,63.3939713 C167.285631,68.9497422 161.785471,74.504915 155.387156,74.504915 C144.687618,74.504915 142.387813,63.062096 142.387813,52.3942505 L174.185048,52.3942505 Z M142.387813,47.2845677 C143.1879,34.50767 146.387656,28.730649 150.987866,28.730649 C155.787201,28.730649 158.186868,33.3966355 158.186868,47.2845677 L142.387813,47.2845677 Z" id="Fill-3" fill="#1A1918"></path>
                <path d="M219.6565,78.2823729 L219.6565,73.8388325 L214.756706,73.8388325 C210.856724,73.8388325 209.057422,71.8374155 209.057422,68.7273559 C209.057422,65.6166982 209.758247,63.1727809 210.256957,61.7274791 L213.456114,52.9510235 L235.454957,52.9510235 L240.354752,65.7291172 C240.953922,67.283848 241.453827,68.7273559 241.453827,70.1714616 C241.453827,72.5059497 240.653739,73.8388325 235.454957,73.8388325 L231.456309,73.8388325 L231.456309,78.2823729 L267.551181,78.2823729 L267.551181,73.8388325 C262.352399,73.3939403 260.151857,71.7267904 258.052373,66.3946616 L232.454925,0.512941853 L227.155087,0.512941853 L204.958314,59.729052 C201.458376,68.9498019 199.058709,72.2835037 191.558926,73.8388325 L191.558926,78.2823729 L219.6565,78.2823729 Z M233.253818,47.1734045 L215.655461,47.1734045 L224.156251,23.7328471 L233.253818,47.1734045 Z" id="Fill-5" fill="#1A1918"></path>
                <path d="M327.347683,24.2414235 C317.647957,24.2414235 306.150125,29.9072215 306.150125,42.3504501 C306.150125,48.4605423 310.049509,53.0141097 314.747188,55.571642 C311.348307,57.2375959 306.349847,60.0151823 306.349847,64.2362766 C306.349847,71.7916706 311.549226,71.7916706 315.947918,73.7900977 L315.947918,74.0125438 C310.848999,74.0125438 303.15069,77.3462455 303.15069,83.2344896 C303.15069,91.5660529 313.148207,97.1224219 327.347683,97.1224219 C341.145321,97.1224219 352.545087,89.7894742 352.545087,79.1240204 C352.545087,56.9033287 315.749391,68.0136746 315.749391,60.2376284 C315.749391,58.5710766 317.748416,58.2374074 319.347995,58.2374074 C321.946788,58.2374074 322.546555,59.1253979 326.945845,59.1253979 C337.946164,59.1253979 348.143404,53.571421 348.143404,42.0161829 C348.143404,34.0176907 343.344667,30.2402926 341.244585,28.4625177 C341.244585,25.130012 342.54458,23.0191658 344.245216,22.4624526 L344.444939,22.4624526 C344.045493,23.4628621 343.944435,24.5744947 343.944435,25.5731103 C343.944435,28.4625177 345.445349,30.4621408 348.744966,30.4621408 C352.545087,30.4621408 354.545308,27.7963754 354.545308,24.6845218 C354.545308,19.5742411 350.644129,17.3521719 346.543826,17.3521719 C341.345045,17.3521719 338.346208,21.0183468 337.146076,26.2410465 C334.04678,25.130012 330.747162,24.2414235 327.347683,24.2414235 M339.346019,85.1228896 C339.346019,90.4562145 333.34715,92.6782839 327.846991,92.6782839 C319.948361,92.6782839 314.549259,89.5682239 314.549259,83.7888109 C314.549259,79.3452706 317.34897,77.1243974 324.847557,77.1243974 C334.147239,77.1243974 339.346019,79.1240204 339.346019,85.1228896 M327.14796,28.6837679 C331.64771,28.6837679 334.345766,32.3511388 334.345766,41.9049599 C334.345766,51.4599768 331.64771,55.1261518 327.14796,55.1261518 C322.648211,55.1261518 319.948361,51.4599768 319.948361,41.9049599 C319.948361,32.3511388 322.648211,28.6837679 327.14796,28.6837679" id="Fill-7" fill="#1A1918"></path>
                <path d="M6.53961653,1.84361207 L6.13957232,28.9521384 L10.7391837,28.9521384 C13.4390337,15.9533925 19.2381797,6.95449075 30.3371641,6.95449075 L30.3371641,66.5030742 C30.3371641,72.0570511 27.9380948,73.834826 19.1383181,73.834826 L19.1383181,78.2801604 L58.1333597,78.2801604 L58.1333597,73.834826 C49.5351002,73.834826 47.1354329,72.0570511 47.1354329,66.5030742 L47.1354329,6.95449075 C58.2338193,6.95449075 64.0341613,15.9533925 66.7340113,28.9521384 L71.3330247,28.9521384 L70.9323825,1.84361207 L6.53961653,1.84361207 Z" id="Fill-9" fill="#1A1918"></path>
                <path d="M107.038674,77.5964375 L128.121422,77.5964375 L128.121422,73.2180763 C122.407787,73.2180763 121.422327,71.0276998 121.422327,65.9927637 L121.422327,40.5974312 C121.422327,30.3087008 115.906022,24.8360482 106.842539,24.8360482 C102.705161,24.8360482 98.8625841,26.9157997 94.5272768,31.8413066 L94.5272768,2.94304597 L72.8543288,3.3807625 L72.8543288,7.54026549 C78.3718294,7.54026549 80.1442226,8.41689451 80.1442226,13.1223472 L80.1442226,65.9927637 C80.1442226,71.0276998 79.1587624,73.2180763 72.2641291,73.2180763 L72.2641291,77.5964375 L101.226373,77.5964375 L101.226373,73.2180763 C95.5127369,73.2180763 94.5272768,71.0276998 94.5272768,65.9927637 L94.5272768,47.3850273 C94.5272768,37.5340135 98.6652525,30.7464174 102.705161,30.7464174 C105.758413,30.7464174 107.038674,32.7167397 107.038674,37.7522738 L107.038674,77.5964375 Z" id="Fill-11" fill="#1A1918"></path>
                <path d="M291.392201,78.2823729 L291.392201,73.8388325 C282.994262,73.8388325 281.992656,71.6155674 281.992656,63.6170752 C281.992656,47.9531618 284.893425,35.7305854 290.793629,31.175822 C290.592112,32.3968837 290.392987,33.5097122 290.392987,35.0650411 C290.392987,39.3979564 292.49307,42.9529082 297.192542,42.9529082 C301.390316,42.9529082 304.389751,39.5091794 304.389751,34.2864797 C304.389751,28.9537528 300.492159,24.7326587 295.09246,24.7326587 C287.494609,24.7326587 283.693293,32.6211238 281.592613,37.9526546 L281.393487,37.9526546 L281.393487,26.0655413 L260.296388,26.5098356 L260.296388,30.5090817 C266.995483,30.5090817 267.995893,32.7311509 267.995893,37.8426275 L267.995893,66.5052867 C267.995893,71.6155674 266.995483,73.8388325 260.296388,73.8388325 L260.296388,78.2823729 L291.392201,78.2823729 Z" id="Fill-13" fill="#1A1918"></path>
                <path d="M376.726772,26.0633886 L354.927054,26.5076829 L354.927054,30.507527 C361.126842,30.507527 362.128447,32.7289982 362.128447,37.8392789 L362.128447,62.9481821 C362.128447,74.2797781 366.727461,79.6131029 377.126218,79.6131029 C383.92398,79.6131029 387.124932,77.3904358 391.723945,72.280155 L391.723945,78.2802201 L413.42141,77.835926 L413.42141,73.8348859 C406.422132,73.8348859 405.42232,71.6146106 405.42232,66.5031339 L405.42232,26.0633886 L382.62578,26.5076829 L382.62578,30.507527 C389.824782,30.507527 390.823996,32.7289982 390.823996,37.8392789 L390.823996,60.2824166 C390.823996,66.2812858 388.525385,73.6130377 382.025415,73.6130377 C378.325753,73.6130377 376.726772,70.279934 376.726772,64.9478051 L376.726772,26.0633886 Z" id="Fill-15" fill="#1A1918"></path>
                <path d="M416.040534,78.9467811 L420.03978,78.9467811 C420.340561,77.5020773 421.241109,75.8361235 422.34138,75.8361235 C424.139485,75.8361235 428.440708,79.6129235 437.338552,79.6129235 C447.13814,79.6129235 457.437635,72.9479119 457.437635,61.2820488 C457.437635,38.5070357 427.440299,47.8384107 427.440299,36.6174398 C427.440299,32.5069706 430.440332,29.1750629 435.438791,29.1750629 C443.737466,29.1750629 447.2386,35.6182263 450.037714,43.1724243 L454.03696,43.1724243 L454.03696,26.0632093 L450.037714,26.0632093 C449.437946,27.618538 449.338683,28.7295727 447.737908,28.7295727 C446.039066,28.7295727 442.039221,24.7303265 435.139804,24.7303265 C424.239945,24.7303265 415.841409,32.7288187 415.841409,42.616309 C415.841409,66.1698834 445.838146,54.6164393 445.838146,68.1707024 C445.838146,72.2799756 441.038812,75.1687852 436.038558,75.1687852 C427.839745,75.1687852 421.440831,67.1696949 419.740794,59.1700067 L416.040534,59.1700067 L416.040534,78.9467811 Z" id="Fill-17" fill="#1A1918"></path>
            </g>
        </g>
    </g>
</svg>